<?xml version="1.0" encoding="utf-8"?>
<!-- Generator: Adobe Illustrator 25.4.1, SVG Export Plug-In . SVG Version: 6.00 Build 0)  -->
<svg version="1.1" id="Layer_1" xmlns="http://www.w3.org/2000/svg" xmlns:xlink="http://www.w3.org/1999/xlink" x="0px" y="0px"
	 viewBox="0 0 77.63 84.45" style="enable-background:new 0 0 77.63 84.45;" xml:space="preserve">
<style type="text/css">
	.st0{fill:#FFDC7F;}
</style>
<path class="st0" d="M57.65,46.64c1.37-2.55,2.4-5.16,2.4-7.85c0-3.75-0.98-7.36-2.66-10.55c-3.04-6.3-9.01-10.83-16.1-11.74
	c-0.14-0.02-0.28-0.05-0.43-0.07c-0.27-0.03-0.54-0.03-0.82-0.05c-0.41-0.03-0.81-0.07-1.23-0.07c-0.02,0-0.04,0-0.06,0
	c-0.02,0-0.05,0-0.07,0c-10.29,0-18.82,7.63-20.54,17.66c-0.35,1.56-0.55,3.17-0.55,4.81c0,1.73,0.43,3.42,1.1,5.09
	c0.92,3.13,2.53,5.96,4.64,8.31c1.77,2.86,3.43,5.79,3.95,8.78c0.69,3.93,0.76,6.04,0.76,6.04c0,0.34,0.03,0.71,0.07,1.11
	c0.03,0.25,0.08,0.51,0.12,0.77c0.03,0.16,0.04,0.31,0.08,0.47c0.06,0.31,0.14,0.63,0.22,0.95c0.03,0.13,0.06,0.26,0.09,0.39
	c0.08,0.31,0.18,0.61,0.27,0.92c0.05,0.15,0.09,0.31,0.14,0.46c0.09,0.28,0.19,0.54,0.29,0.81c0.07,0.18,0.13,0.37,0.2,0.55
	c0.1,0.24,0.2,0.47,0.3,0.7c0.08,0.19,0.16,0.39,0.25,0.57c0.1,0.22,0.21,0.41,0.31,0.62c0.09,0.17,0.18,0.35,0.27,0.51
	c0.11,0.2,0.23,0.37,0.34,0.54c0.07,0.11,0.14,0.23,0.21,0.33l0.13,0.18c0.45,4.61,3.94,5,7.48,5c3.55,0,7.04-0.39,7.48-5
	c0,0,0,0,0,0l0.13-0.18c0.06-0.09,0.13-0.21,0.19-0.31c0.12-0.18,0.24-0.36,0.36-0.57c0.08-0.14,0.16-0.31,0.24-0.46
	c0.11-0.22,0.23-0.43,0.34-0.66c0.08-0.16,0.15-0.34,0.22-0.51c0.11-0.25,0.22-0.5,0.32-0.76c0.06-0.15,0.11-0.31,0.17-0.47
	c0.11-0.29,0.22-0.59,0.32-0.89c0.04-0.13,0.08-0.25,0.12-0.38c0.1-0.33,0.21-0.66,0.3-0.99c0.03-0.11,0.05-0.21,0.08-0.32
	c0.09-0.34,0.17-0.68,0.24-1.01c0.03-0.14,0.04-0.27,0.07-0.41c0.05-0.28,0.1-0.56,0.13-0.83c0.05-0.4,0.07-0.77,0.07-1.1
	c0,0,0-0.04,0.01-0.12c0.02-0.49,0.16-2.53,0.77-6.02l0.01-0.06c0.63-3.38,2.7-6.7,4.71-9.91c0.01-0.02,0.02-0.03,0.03-0.05
	C56.13,49.57,56.97,48.15,57.65,46.64z M32.03,75.72c-0.11-0.17-0.22-0.38-0.34-0.58l7.78,0.58H32.03z M38.82,80.65
	c-3.8,0-5.82-0.6-6.21-3.68h12.42C44.64,80.04,42.61,80.65,38.82,80.65z M46.04,74.97l-15-1.11c-0.14-0.31-0.27-0.63-0.4-0.96
	l15.84,1.17C46.34,74.39,46.2,74.69,46.04,74.97z M47,72.86l-16.81-1.25c-0.1-0.32-0.2-0.63-0.29-0.95l17.43,1.29
	C47.22,72.27,47.12,72.57,47,72.86z M47.71,70.74L29.59,69.4c-0.07-0.33-0.13-0.64-0.17-0.94l18.54,1.37
	C47.88,70.13,47.8,70.44,47.71,70.74z M48.2,68.61l-18.92-1.4c0-0.07-0.01-0.15-0.01-0.22c0-0.03-0.01-0.27-0.04-0.67
	c0-0.02,0-0.03,0-0.04l19.1,1.41C48.3,67.98,48.25,68.29,48.2,68.61z M48.45,65.82c-0.02,0.25-0.04,0.46-0.05,0.63l-19.29-1.43
	c0-0.01,0-0.02,0-0.03c-0.03-0.27-0.06-0.56-0.11-0.89c0-0.01,0-0.02,0-0.02l19.48,1.44C48.46,65.64,48.46,65.73,48.45,65.82z
	 M48.61,64.29l-19.79-1.47c-0.01-0.05-0.02-0.1-0.02-0.15c-0.04-0.26-0.08-0.51-0.12-0.79l20.05,1.48
	C48.69,63.71,48.65,64.01,48.61,64.29z M48.96,61.84c-0.02,0.1-0.04,0.21-0.05,0.3l-12-0.89h12.14
	C49.02,61.47,48.99,61.65,48.96,61.84z"/>
<path class="st0" d="M38.57,2.57c-20.15,0-36.55,16.4-36.55,36.55c0,9.39,3.57,17.95,9.41,24.42L7.04,67.2l15.13,5.57l-2.74-15.89
	l-4.16,3.47c-5.12-5.61-8.25-13.05-8.25-21.23c0-17.4,14.15-31.55,31.55-31.55s31.55,14.15,31.55,31.55
	c0,10.89-5.55,20.51-13.97,26.18c0.26,0.82,0.56,1.66,0.94,2.53c0.35,0.8,0.61,1.56,0.79,2.3c10.34-6.46,17.24-17.94,17.24-31.01
	C75.12,18.96,58.72,2.57,38.57,2.57z"/>
</svg>
