<?xml version="1.0" encoding="utf-8"?>
<!-- Generator: Adobe Illustrator 25.4.1, SVG Export Plug-In . SVG Version: 6.00 Build 0)  -->
<svg version="1.1" id="Layer_1" xmlns="http://www.w3.org/2000/svg" xmlns:xlink="http://www.w3.org/1999/xlink" x="0px" y="0px"
	 viewBox="0 0 215.42 147.44" style="enable-background:new 0 0 215.42 147.44;" xml:space="preserve">
<style type="text/css">
	.st0{fill:#FFF200;stroke:#231F20;stroke-width:2;stroke-miterlimit:10;}
</style>
<g id="Black-L" transform="matrix(1 0 0 1 2819.46 1556)">
	<path class="st0" d="M-2814.6-1482.57c0,4.95,1.03,9.13,3.09,12.55c2.06,3.42,4.79,6.01,8.17,7.78c3.39,1.77,7.04,2.65,10.95,2.65
		c2.37,0,4.53-0.34,6.47-1.01c1.94-0.67,3.87-1.57,5.8-2.71c2.16-1.24,3.92-1.58,5.26-1.03c1.34,0.55,2.01,1.74,2.01,3.56v21.96
		c0,8.11,2.12,14.25,6.37,18.43c4.24,4.18,10.46,6.26,18.63,6.26h14.74c1.86,0,3.06-0.68,3.61-2.04c0.55-1.36,0.21-3.1-1.03-5.23
		c-1.17-1.92-2.08-3.87-2.73-5.82c-0.65-1.96-0.98-4.11-0.98-6.44c0-3.92,0.89-7.57,2.65-10.95c1.77-3.38,4.36-6.11,7.78-8.17
		c3.42-2.06,7.59-3.09,12.5-3.09c4.95,0,9.13,1.03,12.55,3.09c3.42,2.06,6.01,4.79,7.78,8.17c1.77,3.38,2.65,7.04,2.65,10.95
		c0,2.34-0.33,4.48-0.98,6.44c-0.65,1.96-1.56,3.9-2.73,5.82c-1.24,2.13-1.58,3.87-1.03,5.23c0.55,1.36,1.75,2.04,3.61,2.04h14.74
		c8.18,0,14.39-2.09,18.63-6.26c4.24-4.18,6.37-10.32,6.37-18.43v-21.96c0-1.82,0.67-3.01,2.01-3.56c1.34-0.55,3.08-0.21,5.21,1.03
		c1.96,1.13,3.91,2.04,5.85,2.71c1.94,0.67,4.1,1.01,6.47,1.01c3.92,0,7.56-0.88,10.93-2.65c3.37-1.77,6.09-4.36,8.17-7.78
		c2.08-3.42,3.12-7.6,3.12-12.55c0-4.95-1.04-9.13-3.12-12.55c-2.08-3.42-4.8-6.01-8.17-7.78c-3.37-1.77-7.01-2.65-10.93-2.65
		c-2.37,0-4.53,0.33-6.47,1.01c-1.94,0.67-3.89,1.57-5.85,2.71c-2.13,1.24-3.87,1.59-5.21,1.06s-2.01-1.73-2.01-3.58v-21.86
		c0-8.08-2.12-14.2-6.37-18.38c-4.24-4.18-10.46-6.26-18.63-6.26h-14.74c-1.86,0-3.06,0.67-3.61,2.01
		c-0.55,1.34-0.21,3.08,1.03,5.21c1.17,1.96,2.08,3.91,2.73,5.85c0.65,1.94,0.98,4.08,0.98,6.42c0,3.95-0.88,7.61-2.65,10.98
		c-1.77,3.37-4.36,6.09-7.78,8.17c-3.42,2.08-7.6,3.12-12.55,3.12c-4.91,0-9.08-1.04-12.5-3.12c-3.42-2.08-6.01-4.8-7.78-8.17
		c-1.77-3.37-2.65-7.03-2.65-10.98c0-2.34,0.33-4.48,0.98-6.42c0.65-1.94,1.56-3.89,2.73-5.85c1.24-2.13,1.58-3.87,1.03-5.21
		c-0.55-1.34-1.75-2.01-3.61-2.01h-14.74c-8.18,0-14.39,2.09-18.63,6.26c-4.24,4.18-6.37,10.3-6.37,18.38v21.86
		c0,1.86-0.67,3.05-2.01,3.58c-1.34,0.53-3.09,0.18-5.26-1.06c-1.92-1.13-3.86-2.04-5.8-2.71c-1.94-0.67-4.1-1.01-6.47-1.01
		c-3.92,0-7.57,0.88-10.95,2.65c-3.38,1.77-6.11,4.36-8.17,7.78C-2813.56-1491.71-2814.6-1487.52-2814.6-1482.57z"/>
</g>
</svg>
