<?xml version="1.0" encoding="utf-8"?>
<!-- Generator: Adobe Illustrator 25.4.1, SVG Export Plug-In . SVG Version: 6.00 Build 0)  -->
<svg version="1.1" id="Layer_1" xmlns="http://www.w3.org/2000/svg" xmlns:xlink="http://www.w3.org/1999/xlink" x="0px" y="0px"
	 viewBox="0 0 213.78 155.98" style="enable-background:new 0 0 213.78 155.98;" xml:space="preserve">
<g id="Black-L" transform="matrix(1 0 0 1 2820.95 1556)">
	<path d="M-2708.7-1411.99c1.46,0,3.03-0.18,4.69-0.54c1.66-0.36,3.54-0.72,5.64-1.1c2.1-0.37,4.57-0.56,7.4-0.56
		c2.86,0,5.22,0.19,7.05,0.56s3.56,0.74,5.15,1.1c1.59,0.36,3.48,0.54,5.66,0.54c4.56,0,8.18-0.98,10.86-2.95
		c2.69-1.97,4.03-4.79,4.03-8.47c0-3.61-1.07-7.02-3.22-10.23c-2.15-3.21-5.4-5.81-9.77-7.81c-4.36-2-9.81-3-16.36-3
		c-3.52,0-6.45,0.2-8.79,0.59c-2.34,0.39-4.44,0.84-6.28,1.34s-3.8,0.92-5.88,1.25l-7.76-16.6c-2.57-5.37-5.8-9.8-9.69-13.28
		c-3.89-3.48-8.19-6.06-12.91-7.74c-4.72-1.68-9.57-2.51-14.55-2.51h-7.86c-1.82,0-3.26-0.46-4.3-1.37
		c-1.04-0.91-1.56-2.18-1.56-3.81c0-1.79,0.62-3.17,1.86-4.15c1.24-0.98,2.86-1.65,4.86-2.03c2-0.37,4.16-0.56,6.47-0.56
		c10.19,0,19.47,2.59,27.83,7.76c8.37,5.18,15.1,13.2,20.21,24.07l4.15,8.94c2.12-0.36,4.3-0.64,6.57-0.85s4.57-0.32,6.91-0.32
		c1.89,0,3.8,0.09,5.74,0.27c1.94,0.18,3.85,0.53,5.74,1.05c2.08-0.91,4.24-1.86,6.47-2.83c2.23-0.98,4.34-1.97,6.32-2.98
		c2.54,1.56,5.18,3.11,7.91,4.64c2.73,1.53,5.84,2.81,9.33,3.83c3.48,1.03,7.63,1.54,12.45,1.54c4.46,0,8.33-0.72,11.62-2.17
		c3.29-1.45,5.83-3.87,7.62-7.28c1.79-3.4,2.68-8,2.68-13.79c0-5.08-0.82-9.94-2.47-14.58c-1.64-4.64-4.07-8.76-7.28-12.35
		c-3.21-3.6-7.15-6.37-11.82-8.33c-4.67-1.95-10.02-2.78-16.04-2.49l-14.21-21.83c-4.3-6.64-9.39-11.47-15.28-14.48
		c-5.89-3.01-11.8-4.52-17.72-4.52c-2.38,0-5.1,0.3-8.18,0.9c-3.08,0.6-6.05,1.46-8.91,2.56c-2.86,1.11-5.24,2.43-7.13,3.96
		c-1.89,1.53-2.83,3.22-2.83,5.08c0,1.14,0.59,2.43,1.78,3.88c1.19,1.45,2.73,2.95,4.64,4.52c1.9,1.56,3.95,3.12,6.13,4.66
		c2.18,1.55,4.3,3,6.35,4.37l34.57,23.44c-1.27,1.04-2.52,1.93-3.74,2.66c-1.22,0.73-2.92,1.1-5.1,1.1c-1.95,0-3.97-0.42-6.06-1.25
		c-2.08-0.83-4.21-1.86-6.37-3.08c-2.16-1.22-4.32-2.4-6.47-3.54c-5.24-3.35-10.07-6.45-14.48-9.3c-4.41-2.85-8.74-5.33-12.99-7.45
		c-4.25-2.12-8.71-3.76-13.38-4.93c-4.67-1.17-9.85-1.76-15.55-1.76c-6.87,0-13.37,1.29-19.51,3.88
		c-6.14,2.59-11.62,6.66-16.46,12.21c-4.83,5.55-8.7,12.77-11.6,21.66c-3.52-0.2-6.44,0.69-8.76,2.66
		c-2.33,1.97-3.49,4.55-3.49,7.74c0,3.52,1.3,6.32,3.91,8.42c2.6,2.1,5.96,3.08,10.06,2.95c3.32,5.79,7.03,10.38,11.13,13.77
		c4.1,3.39,8.81,5.8,14.11,7.25c5.31,1.45,11.39,2.17,18.26,2.17c0.62,0,1.24-0.01,1.86-0.02c0.62-0.02,1.24-0.04,1.86-0.07
		l26.56,22.66c3.26,2.83,6.44,4.7,9.55,5.59C-2714.36-1412.43-2711.43-1411.99-2708.7-1411.99z M-2760.46-1406.42
		c5.6,0,10.38-0.49,14.36-1.46c3.97-0.98,7.52-2.49,10.64-4.54l-18.95-16.21c-0.42,0.03-0.89,0.07-1.39,0.1
		c-0.5,0.03-1.03,0.05-1.59,0.05c-0.98,0-2.25-0.08-3.83-0.24c-1.58-0.16-3.28-0.33-5.1-0.51c-1.82-0.18-3.61-0.27-5.37-0.27
		c-3.45,0-6.2,0.84-8.25,2.51c-2.05,1.68-3.08,3.9-3.08,6.67c0,4.17,2.06,7.53,6.18,10.08
		C-2772.72-1407.7-2767.26-1406.42-2760.46-1406.42z M-2641.37-1473.02c-1.92,0-3.55-0.68-4.88-2.05s-2-2.99-2-4.88
		c0-1.95,0.68-3.65,2.03-5.08c1.35-1.43,2.99-2.15,4.91-2.15c1.95,0,3.6,0.68,4.96,2.03c1.35,1.35,2.03,2.97,2.03,4.86
		c0,1.99-0.69,3.69-2.08,5.13S-2639.44-1473.02-2641.37-1473.02z"/>
</g>
</svg>
