<?xml version="1.0" encoding="utf-8"?>
<!-- Generator: Adobe Illustrator 25.4.1, SVG Export Plug-In . SVG Version: 6.00 Build 0)  -->
<svg version="1.1" id="Layer_1" xmlns="http://www.w3.org/2000/svg" xmlns:xlink="http://www.w3.org/1999/xlink" x="0px" y="0px"
	 viewBox="0 0 227.25 116.67" style="enable-background:new 0 0 227.25 116.67;" xml:space="preserve">
<style type="text/css">
	.st0{fill:#231F20;}
</style>
<g id="Black-L" transform="matrix(1 0 0 1 2813.53 1556)">
	<path class="st0" d="M-2652.75-1476.64c2.44-0.98,4.92-2,7.42-3.08c2.51-1.07,5.06-2.08,7.67-3.03c2.6-0.94,5.29-1.7,8.06-2.27
		c2.77-0.57,5.63-0.85,8.59-0.85c6.25,0,11.63-0.69,16.14-2.08c4.51-1.38,7.97-3.34,10.4-5.88s3.64-5.52,3.64-8.94
		c0-5.86-0.73-11.17-2.2-15.94c-1.47-4.77-3.57-8.86-6.3-12.28c-2.73-3.42-6.01-6.04-9.81-7.86c-3.81-1.82-8.04-2.73-12.7-2.73
		c-3.94,0-7.52,0.62-10.74,1.86c-3.22,1.24-6.08,2.97-8.57,5.2c-2.49,2.23-4.61,4.87-6.37,7.91c-1.76,3.04-3.17,6.37-4.25,9.99
		c-0.49,1.69-1.09,3.22-1.81,4.59c-0.72,1.37-1.53,2.6-2.44,3.69c-0.91,1.09-1.88,2.05-2.91,2.88s-2.11,1.55-3.25,2.17
		c1.11,2.7,2.21,5.53,3.3,8.47c1.09,2.95,2.16,5.96,3.2,9.03C-2654.64-1482.72-2653.66-1479.67-2652.75-1476.64z M-2620.28-1508.28
		c-1.99,0-3.68-0.71-5.08-2.12c-1.4-1.42-2.1-3.1-2.1-5.05c0-1.95,0.7-3.63,2.1-5.03c1.4-1.4,3.09-2.1,5.08-2.1
		c1.95,0,3.62,0.7,5,2.1c1.38,1.4,2.08,3.08,2.08,5.03c0,1.95-0.69,3.64-2.08,5.05
		C-2616.66-1508.99-2618.32-1508.28-2620.28-1508.28z"/>
	<path class="st0" d="M-2730.92-1512.19c5.57,0,10.89-0.75,15.97-2.25c5.08-1.5,9.86-3.72,14.35-6.67c4.49-2.95,8.63-6.6,12.4-10.96
		c-3.97-4.65-8.09-8.43-12.35-11.33c-4.26-2.9-8.85-5.01-13.75-6.35c-4.9-1.33-10.28-2.02-16.14-2.05c-5.96,0-11.49,0.78-16.6,2.34
		c-5.11,1.56-9.83,3.86-14.16,6.88c-4.33,3.03-8.3,6.72-11.91,11.08c3.68,4.26,7.76,7.83,12.23,10.69
		c4.48,2.86,9.24,5.01,14.28,6.45C-2741.55-1512.9-2736.33-1512.19-2730.92-1512.19z M-2730.34-1453.45c4.79,0,9.19-0.49,13.21-1.46
		c4.02-0.98,7.71-2.19,11.08-3.64c3.37-1.45,6.45-2.87,9.25-4.27c-4.2-3.19-7.81-6.88-10.84-11.06c-3.03-4.18-5.4-8.72-7.1-13.6
		c-1.71-4.88-2.69-9.93-2.95-15.14c-4.46,0.88-8.84,1.32-13.13,1.32c-2.12,0-4.21-0.1-6.27-0.29c-2.07-0.2-4.11-0.5-6.13-0.93
		c-0.36,5.18-1.38,10.19-3.05,15.04c-1.68,4.85-3.95,9.39-6.81,13.62c-2.86,4.23-6.27,7.99-10.21,11.28
		c2.9,1.27,6.01,2.61,9.35,4.03c3.34,1.42,6.96,2.62,10.86,3.61S-2734.93-1453.45-2730.34-1453.45z M-2773.21-1467.12
		c3.61-2.73,6.84-6.18,9.69-10.35c2.85-4.17,5.17-8.65,6.96-13.45c1.79-4.8,2.93-9.56,3.42-14.28c-4.72-1.69-9.33-3.96-13.82-6.79
		s-8.76-6.33-12.79-10.5c-1.37,2.05-2.74,4.23-4.13,6.54c-1.38,2.31-2.74,4.77-4.08,7.37c-1.69,3.26-3.4,6.04-5.13,8.35
		c-1.73,2.31-3.39,4.31-4.98,5.98c-1.6,1.68-3.04,3.2-4.35,4.57c-1.89,1.95-3.3,3.6-4.22,4.93c-0.93,1.33-1.39,3.01-1.39,5.03
		c0,2.8,1.17,4.96,3.52,6.49c2.34,1.53,5.66,2.29,9.96,2.29h6.64c2.51,0,4.96,0.37,7.35,1.12
		C-2778.16-1469.06-2775.71-1468.16-2773.21-1467.12z M-2687.46-1467.56c2.38-0.85,5.1-1.64,8.18-2.39
		c3.08-0.75,6.08-1.37,9.01-1.86c1.73-0.2,3.43-0.47,5.1-0.83c1.68-0.36,3.02-0.81,4.03-1.37c-0.78-2.21-1.79-4.98-3.03-8.3
		c-1.24-3.32-2.6-6.92-4.08-10.79c-1.48-3.87-3.02-7.74-4.61-11.6c-1.6-3.86-3.17-7.42-4.71-10.69c-1.55-3.27-2.95-5.95-4.22-8.03
		c-2.57,2.77-5.27,5.29-8.1,7.57c-2.83,2.28-5.75,4.28-8.74,6.01c-2.99,1.73-6.04,3.17-9.13,4.35c0.33,3.61,1.03,7.21,2.12,10.79
		c1.09,3.58,2.51,7.04,4.25,10.38c1.74,3.34,3.78,6.43,6.13,9.28C-2692.93-1472.2-2690.33-1469.71-2687.46-1467.56z"/>
	<path class="st0" d="M-2666.91-1443.97c4.98,0,8.99-0.96,12.04-2.88c3.04-1.92,4.56-4.52,4.56-7.81c0-1.99-0.5-3.58-1.49-4.79
		s-2.24-2.15-3.73-2.83c-1.5-0.68-3.04-1.25-4.64-1.71c-1.37-0.23-2.69-0.45-3.98-0.66c-1.29-0.21-2.68-0.42-4.17-0.61
		c-3.03,0.62-6.38,1.56-10.06,2.83s-7.24,2.67-10.69,4.2c-3.45,1.53-6.35,3.01-8.69,4.44c2.15,1.99,4.92,3.72,8.3,5.2
		c3.39,1.48,7.04,2.62,10.96,3.42C-2674.58-1444.37-2670.72-1443.97-2666.91-1443.97z M-2789.91-1443.97
		c3.81,0,7.54-0.39,11.18-1.17c3.65-0.78,7.06-1.87,10.23-3.27c3.17-1.4,5.95-2.99,8.33-4.79c-4.52-2.25-9.29-4.44-14.28-6.57
		c-5-2.13-9.81-3.87-14.43-5.2c-1.69,0.52-3.3,0.96-4.83,1.32c-1.53,0.36-3.22,0.78-5.08,1.27c-1.73,0.49-3.34,1.34-4.83,2.56
		c-1.5,1.22-2.25,2.94-2.25,5.15c0,3.29,1.46,5.89,4.39,7.81S-2794.69-1443.97-2789.91-1443.97z"/>
</g>
</svg>
